<svg width="652" height="645" viewBox="0 0 652 645" fill="none" xmlns="http://www.w3.org/2000/svg">
<rect width="652" height="544" rx="20" fill="#F8F8F8"/>
<mask id="mask0_27_917" style="mask-type:alpha" maskUnits="userSpaceOnUse" x="0" y="0" width="652" height="544">
<rect width="652" height="544" rx="20" fill="url(#paint0_linear_27_917)"/>
</mask>
<g mask="url(#mask0_27_917)">
<path d="M418.903 657.94C387.658 638.288 -58.6374 653.027 79.4016 332.197C217.441 11.3657 594.716 -159.122 679.125 39.8621C763.534 238.846 528.495 527.25 296.253 548.377C64.0121 569.503 -89.4164 424.073 -5.00741 263.412C79.4016 102.751 475.331 -117.851 549.014 65.902C622.697 249.655 528.495 438.321 296.253 449.622C64.0121 460.922 -37.6518 390.663 72.4063 215.263C182.464 39.8622 462.273 24.6313 452.946 119.947C443.619 215.263 427.764 357.254 181.532 338.584C-64.7 319.914 504.245 7.43512 752.808 105.207" stroke="#242424"/>
</g>
<g filter="url(#filter0_d_27_917)">
<rect x="46" y="45.75" width="560" height="545" rx="20" fill="white"/>
</g>
<path d="M248.857 82.4727C250.7 82.4727 252.044 82.8698 252.891 83.6641C253.737 84.4518 254.16 85.5391 254.16 86.9258C254.16 87.5508 254.066 88.1497 253.877 88.7227C253.688 89.2891 253.379 89.7936 252.949 90.2363C252.526 90.679 251.96 91.0306 251.25 91.291C250.54 91.5449 249.665 91.6719 248.623 91.6719H247.324V96.75H244.297V82.4727H248.857ZM248.701 84.9531H247.324V89.1914H248.32C248.887 89.1914 249.378 89.1165 249.795 88.9668C250.212 88.8171 250.534 88.5827 250.762 88.2637C250.99 87.9447 251.104 87.5345 251.104 87.0332C251.104 86.3301 250.908 85.8092 250.518 85.4707C250.127 85.1257 249.521 84.9531 248.701 84.9531ZM262.715 85.627C262.865 85.627 263.037 85.6367 263.232 85.6562C263.434 85.6693 263.597 85.6888 263.721 85.7148L263.496 88.5078C263.398 88.4753 263.258 88.4525 263.076 88.4395C262.9 88.4199 262.747 88.4102 262.617 88.4102C262.233 88.4102 261.859 88.459 261.494 88.5566C261.136 88.6543 260.814 88.8138 260.527 89.0352C260.241 89.25 260.013 89.5365 259.844 89.8945C259.681 90.2461 259.6 90.679 259.6 91.1934V96.75H256.621V85.832H258.877L259.316 87.668H259.463C259.678 87.2969 259.945 86.9583 260.264 86.6523C260.589 86.3398 260.957 86.0924 261.367 85.9102C261.784 85.7214 262.233 85.627 262.715 85.627ZM275.625 91.2715C275.625 92.1829 275.501 92.9902 275.254 93.6934C275.013 94.3965 274.658 94.9922 274.189 95.4805C273.727 95.9622 273.167 96.3268 272.51 96.5742C271.859 96.8216 271.123 96.9453 270.303 96.9453C269.535 96.9453 268.828 96.8216 268.184 96.5742C267.546 96.3268 266.989 95.9622 266.514 95.4805C266.045 94.9922 265.68 94.3965 265.42 93.6934C265.166 92.9902 265.039 92.1829 265.039 91.2715C265.039 90.0605 265.254 89.0352 265.684 88.1953C266.113 87.3555 266.725 86.7174 267.52 86.2812C268.314 85.8451 269.261 85.627 270.361 85.627C271.383 85.627 272.288 85.8451 273.076 86.2812C273.87 86.7174 274.492 87.3555 274.941 88.1953C275.397 89.0352 275.625 90.0605 275.625 91.2715ZM268.076 91.2715C268.076 91.9876 268.154 92.5898 268.311 93.0781C268.467 93.5664 268.711 93.9342 269.043 94.1816C269.375 94.429 269.808 94.5527 270.342 94.5527C270.869 94.5527 271.296 94.429 271.621 94.1816C271.953 93.9342 272.194 93.5664 272.344 93.0781C272.5 92.5898 272.578 91.9876 272.578 91.2715C272.578 90.5488 272.5 89.9499 272.344 89.4746C272.194 88.9928 271.953 88.6315 271.621 88.3906C271.289 88.1497 270.856 88.0293 270.322 88.0293C269.535 88.0293 268.962 88.2995 268.604 88.8398C268.252 89.3802 268.076 90.1908 268.076 91.2715ZM281.543 96.9453C280.326 96.9453 279.333 96.4701 278.564 95.5195C277.803 94.5625 277.422 93.1595 277.422 91.3105C277.422 89.4421 277.809 88.0293 278.584 87.0723C279.359 86.1087 280.371 85.627 281.621 85.627C282.142 85.627 282.601 85.6986 282.998 85.8418C283.395 85.985 283.737 86.1771 284.023 86.418C284.316 86.6589 284.564 86.929 284.766 87.2285H284.863C284.824 87.0202 284.775 86.7142 284.717 86.3105C284.665 85.9004 284.639 85.4805 284.639 85.0508V81.5547H287.627V96.75H285.342L284.766 95.334H284.639C284.45 95.6335 284.212 95.9069 283.926 96.1543C283.646 96.3952 283.311 96.5872 282.92 96.7305C282.529 96.8737 282.07 96.9453 281.543 96.9453ZM282.588 94.5723C283.402 94.5723 283.975 94.3314 284.307 93.8496C284.645 93.3613 284.824 92.6289 284.844 91.6523V91.3301C284.844 90.2689 284.681 89.4583 284.355 88.8984C284.03 88.332 283.424 88.0488 282.539 88.0488C281.882 88.0488 281.367 88.332 280.996 88.8984C280.625 89.4648 280.439 90.2819 280.439 91.3496C280.439 92.4173 280.625 93.2214 280.996 93.7617C281.374 94.3021 281.904 94.5723 282.588 94.5723ZM300.762 85.832V96.75H298.477L298.076 95.3535H297.92C297.686 95.7246 297.393 96.0273 297.041 96.2617C296.689 96.4961 296.302 96.6686 295.879 96.7793C295.456 96.89 295.016 96.9453 294.561 96.9453C293.779 96.9453 293.099 96.8086 292.52 96.5352C291.94 96.2552 291.488 95.8223 291.162 95.2363C290.843 94.6504 290.684 93.8887 290.684 92.9512V85.832H293.662V92.209C293.662 92.9902 293.802 93.5794 294.082 93.9766C294.362 94.3737 294.808 94.5723 295.42 94.5723C296.025 94.5723 296.501 94.4355 296.846 94.1621C297.191 93.8822 297.432 93.4753 297.568 92.9414C297.712 92.401 297.783 91.7435 297.783 90.9688V85.832H300.762ZM308.32 96.9453C307.24 96.9453 306.318 96.75 305.557 96.3594C304.795 95.9622 304.215 95.3503 303.818 94.5234C303.421 93.6966 303.223 92.6387 303.223 91.3496C303.223 90.015 303.447 88.9277 303.896 88.0879C304.352 87.2415 304.98 86.6198 305.781 86.2227C306.589 85.8255 307.523 85.627 308.584 85.627C309.339 85.627 309.99 85.7018 310.537 85.8516C311.09 85.9948 311.572 86.1673 311.982 86.3691L311.104 88.6738C310.635 88.485 310.199 88.332 309.795 88.2148C309.391 88.0911 308.988 88.0293 308.584 88.0293C308.063 88.0293 307.63 88.153 307.285 88.4004C306.94 88.6413 306.683 89.0059 306.514 89.4941C306.344 89.9824 306.26 90.5944 306.26 91.3301C306.26 92.0527 306.351 92.6517 306.533 93.127C306.715 93.6022 306.979 93.957 307.324 94.1914C307.669 94.4193 308.089 94.5332 308.584 94.5332C309.202 94.5332 309.753 94.4518 310.234 94.2891C310.716 94.1198 311.185 93.8854 311.641 93.5859V96.1348C311.185 96.4212 310.706 96.6263 310.205 96.75C309.71 96.8802 309.082 96.9453 308.32 96.9453ZM318.779 94.5723C319.105 94.5723 319.421 94.5397 319.727 94.4746C320.039 94.4095 320.348 94.3281 320.654 94.2305V96.4473C320.335 96.5905 319.938 96.7077 319.463 96.7988C318.994 96.8965 318.48 96.9453 317.92 96.9453C317.269 96.9453 316.683 96.8411 316.162 96.6328C315.648 96.418 315.241 96.0501 314.941 95.5293C314.648 95.002 314.502 94.2695 314.502 93.332V88.0684H313.076V86.8086L314.717 85.8125L315.576 83.5078H317.48V85.832H320.537V88.0684H317.48V93.332C317.48 93.7487 317.598 94.0612 317.832 94.2695C318.073 94.4714 318.389 94.5723 318.779 94.5723ZM340.146 89.4746C340.146 91.0827 339.837 92.4271 339.219 93.5078C338.607 94.582 337.718 95.3926 336.553 95.9395C335.387 96.4798 333.984 96.75 332.344 96.75H328.301V82.4727H332.783C334.281 82.4727 335.579 82.7396 336.68 83.2734C337.78 83.8008 338.633 84.5853 339.238 85.627C339.844 86.6621 340.146 87.9447 340.146 89.4746ZM337.002 89.5527C337.002 88.498 336.846 87.6322 336.533 86.9551C336.227 86.2715 335.771 85.7669 335.166 85.4414C334.567 85.1159 333.825 84.9531 332.939 84.9531H331.328V94.25H332.627C334.105 94.25 335.202 93.8561 335.918 93.0684C336.641 92.2806 337.002 91.1087 337.002 89.5527ZM347.373 85.627C348.382 85.627 349.251 85.8223 349.98 86.2129C350.71 86.597 351.273 87.1569 351.67 87.8926C352.067 88.6283 352.266 89.5267 352.266 90.5879V92.0332H345.225C345.257 92.873 345.508 93.5339 345.977 94.0156C346.452 94.4909 347.109 94.7285 347.949 94.7285C348.646 94.7285 349.284 94.6569 349.863 94.5137C350.443 94.3704 351.038 94.1556 351.65 93.8691V96.1738C351.11 96.4408 350.544 96.6361 349.951 96.7598C349.365 96.8835 348.652 96.9453 347.812 96.9453C346.719 96.9453 345.749 96.7435 344.902 96.3398C344.062 95.9362 343.402 95.321 342.92 94.4941C342.445 93.6673 342.207 92.6257 342.207 91.3691C342.207 90.0931 342.422 89.0319 342.852 88.1855C343.288 87.3327 343.893 86.6947 344.668 86.2715C345.443 85.8418 346.344 85.627 347.373 85.627ZM347.393 87.7461C346.813 87.7461 346.331 87.9316 345.947 88.3027C345.57 88.6738 345.352 89.2565 345.293 90.0508H349.473C349.466 89.6081 349.385 89.2142 349.229 88.8691C349.079 88.5241 348.851 88.2507 348.545 88.0488C348.245 87.847 347.861 87.7461 347.393 87.7461ZM357.666 96.75H354.688V81.5547H357.666V96.75ZM363.779 85.832V96.75H360.801V85.832H363.779ZM362.295 81.5547C362.738 81.5547 363.118 81.6589 363.438 81.8672C363.757 82.069 363.916 82.4499 363.916 83.0098C363.916 83.5632 363.757 83.9473 363.438 84.1621C363.118 84.3704 362.738 84.4746 362.295 84.4746C361.846 84.4746 361.462 84.3704 361.143 84.1621C360.83 83.9473 360.674 83.5632 360.674 83.0098C360.674 82.4499 360.83 82.069 361.143 81.8672C361.462 81.6589 361.846 81.5547 362.295 81.5547ZM369.512 96.75L365.352 85.832H368.467L370.576 92.0527C370.693 92.4173 370.785 92.8014 370.85 93.2051C370.921 93.6087 370.97 93.9701 370.996 94.2891H371.074C371.094 93.944 371.139 93.5762 371.211 93.1855C371.289 92.7949 371.39 92.4173 371.514 92.0527L373.613 85.832H376.729L372.568 96.75H369.512ZM382.803 85.627C383.812 85.627 384.681 85.8223 385.41 86.2129C386.139 86.597 386.702 87.1569 387.1 87.8926C387.497 88.6283 387.695 89.5267 387.695 90.5879V92.0332H380.654C380.687 92.873 380.938 93.5339 381.406 94.0156C381.882 94.4909 382.539 94.7285 383.379 94.7285C384.076 94.7285 384.714 94.6569 385.293 94.5137C385.872 94.3704 386.468 94.1556 387.08 93.8691V96.1738C386.54 96.4408 385.973 96.6361 385.381 96.7598C384.795 96.8835 384.082 96.9453 383.242 96.9453C382.148 96.9453 381.178 96.7435 380.332 96.3398C379.492 95.9362 378.831 95.321 378.35 94.4941C377.874 93.6673 377.637 92.6257 377.637 91.3691C377.637 90.0931 377.852 89.0319 378.281 88.1855C378.717 87.3327 379.323 86.6947 380.098 86.2715C380.872 85.8418 381.774 85.627 382.803 85.627ZM382.822 87.7461C382.243 87.7461 381.761 87.9316 381.377 88.3027C380.999 88.6738 380.781 89.2565 380.723 90.0508H384.902C384.896 89.6081 384.814 89.2142 384.658 88.8691C384.508 88.5241 384.281 88.2507 383.975 88.0488C383.675 87.847 383.291 87.7461 382.822 87.7461ZM396.211 85.627C396.361 85.627 396.533 85.6367 396.729 85.6562C396.93 85.6693 397.093 85.6888 397.217 85.7148L396.992 88.5078C396.895 88.4753 396.755 88.4525 396.572 88.4395C396.396 88.4199 396.243 88.4102 396.113 88.4102C395.729 88.4102 395.355 88.459 394.99 88.5566C394.632 88.6543 394.31 88.8138 394.023 89.0352C393.737 89.25 393.509 89.5365 393.34 89.8945C393.177 90.2461 393.096 90.679 393.096 91.1934V96.75H390.117V85.832H392.373L392.812 87.668H392.959C393.174 87.2969 393.441 86.9583 393.76 86.6523C394.085 86.3398 394.453 86.0924 394.863 85.9102C395.28 85.7214 395.729 85.627 396.211 85.627ZM397.637 85.832H400.898L402.959 91.9746C403.024 92.1699 403.079 92.3685 403.125 92.5703C403.171 92.7721 403.21 92.9805 403.242 93.1953C403.275 93.4102 403.301 93.6348 403.32 93.8691H403.379C403.418 93.5176 403.47 93.1888 403.535 92.8828C403.607 92.5768 403.695 92.2741 403.799 91.9746L405.82 85.832H409.014L404.395 98.1465C404.115 98.9017 403.75 99.5299 403.301 100.031C402.852 100.539 402.334 100.92 401.748 101.174C401.169 101.428 400.531 101.555 399.834 101.555C399.495 101.555 399.202 101.535 398.955 101.496C398.708 101.464 398.496 101.428 398.32 101.389V99.0254C398.457 99.0579 398.63 99.0872 398.838 99.1133C399.046 99.1393 399.264 99.1523 399.492 99.1523C399.909 99.1523 400.267 99.0645 400.566 98.8887C400.866 98.7129 401.117 98.4753 401.318 98.1758C401.52 97.8828 401.68 97.5605 401.797 97.209L401.973 96.6719L397.637 85.832Z" fill="#313F5B"/>
<g filter="url(#filter1_d_27_917)">
<rect x="76" y="113.75" width="243.5" height="447" rx="8.00146" fill="white"/>
<rect x="75.75" y="113.5" width="244" height="447.5" rx="8.2515" stroke="#F3F3F3" stroke-width="0.500091"/>
<rect x="84.0015" y="121.75" width="227.497" height="389" rx="6.00109" fill="#F8F8F8"/>
<path d="M179.143 350.519C179.143 352.508 178.353 354.416 176.946 355.822C175.54 357.229 173.632 358.019 171.643 358.019C169.654 358.019 167.746 357.229 166.34 355.822C164.933 354.416 164.143 352.508 164.143 350.519M179.143 350.519C179.143 348.53 178.353 346.622 176.946 345.216C175.54 343.809 173.632 343.019 171.643 343.019C169.654 343.019 167.746 343.809 166.34 345.216C164.933 346.622 164.143 348.53 164.143 350.519M179.143 350.519H209.143M164.143 350.519H154.768C153.276 350.519 151.846 349.926 150.791 348.871C149.736 347.817 149.143 346.386 149.143 344.894V328.019M209.143 350.519H220.393M209.143 350.519V328.019M149.143 328.019V289.844C149.135 288.475 149.635 287.151 150.547 286.13C151.459 285.108 152.717 284.461 154.078 284.314C170.743 282.584 187.543 282.584 204.208 284.314C207.033 284.604 209.143 287.004 209.143 289.844V294.634M149.143 328.019H209.143M235.393 350.519C235.393 352.508 234.603 354.416 233.196 355.822C231.79 357.229 229.882 358.019 227.893 358.019C225.904 358.019 223.996 357.229 222.59 355.822C221.183 354.416 220.393 352.508 220.393 350.519M235.393 350.519C235.393 348.53 234.603 346.622 233.196 345.216C231.79 343.809 229.882 343.019 227.893 343.019C225.904 343.019 223.996 343.809 222.59 345.216C221.183 346.622 220.393 348.53 220.393 350.519M235.393 350.519H241.018C244.123 350.519 246.663 347.999 246.468 344.899C245.463 328.387 239.903 312.477 230.403 298.934C229.498 297.665 228.317 296.619 226.948 295.874C225.58 295.129 224.06 294.705 222.503 294.634H209.143M209.143 294.634V328.019" stroke="black" stroke-width="7.5" stroke-linecap="round" stroke-linejoin="round"/>
<path d="M173.041 540.475C173.041 542.083 172.748 543.427 172.162 544.508C171.576 545.582 170.727 546.393 169.613 546.939C168.507 547.48 167.162 547.75 165.58 547.75H161.703V533.473H166.01C167.462 533.473 168.712 533.74 169.76 534.273C170.808 534.801 171.615 535.585 172.182 536.627C172.755 537.662 173.041 538.945 173.041 540.475ZM171.293 540.533C171.293 539.251 171.078 538.193 170.648 537.359C170.225 536.526 169.6 535.908 168.773 535.504C167.953 535.094 166.947 534.889 165.756 534.889H163.363V546.324H165.385C167.351 546.324 168.826 545.839 169.809 544.869C170.798 543.899 171.293 542.454 171.293 540.533ZM180.092 536.852C181.003 536.852 181.785 537.053 182.436 537.457C183.087 537.861 183.585 538.427 183.93 539.156C184.275 539.879 184.447 540.725 184.447 541.695V542.701H177.055C177.074 543.958 177.387 544.915 177.992 545.572C178.598 546.23 179.451 546.559 180.551 546.559C181.228 546.559 181.827 546.497 182.348 546.373C182.868 546.249 183.409 546.067 183.969 545.826V547.252C183.428 547.493 182.891 547.669 182.357 547.779C181.83 547.89 181.205 547.945 180.482 547.945C179.454 547.945 178.555 547.737 177.787 547.32C177.025 546.897 176.433 546.279 176.01 545.465C175.587 544.651 175.375 543.655 175.375 542.477C175.375 541.324 175.567 540.328 175.951 539.488C176.342 538.642 176.889 537.991 177.592 537.535C178.301 537.079 179.135 536.852 180.092 536.852ZM180.072 538.18C179.206 538.18 178.516 538.463 178.002 539.029C177.488 539.596 177.182 540.387 177.084 541.402H182.748C182.742 540.764 182.641 540.204 182.445 539.723C182.257 539.234 181.967 538.857 181.576 538.59C181.186 538.316 180.684 538.18 180.072 538.18ZM188.832 547.75H187.201V532.555H188.832V547.75ZM193.881 537.047V547.75H192.26V537.047H193.881ZM193.09 533.043C193.357 533.043 193.585 533.131 193.773 533.307C193.969 533.476 194.066 533.743 194.066 534.107C194.066 534.465 193.969 534.732 193.773 534.908C193.585 535.084 193.357 535.172 193.09 535.172C192.81 535.172 192.576 535.084 192.387 534.908C192.204 534.732 192.113 534.465 192.113 534.107C192.113 533.743 192.204 533.476 192.387 533.307C192.576 533.131 192.81 533.043 193.09 533.043ZM199.672 547.75L195.609 537.047H197.348L199.701 543.521C199.864 543.964 200.03 544.452 200.199 544.986C200.368 545.52 200.486 545.95 200.551 546.275H200.619C200.697 545.95 200.827 545.52 201.01 544.986C201.192 544.446 201.358 543.958 201.508 543.521L203.861 537.047H205.6L201.527 547.75H199.672ZM211.439 536.852C212.351 536.852 213.132 537.053 213.783 537.457C214.434 537.861 214.932 538.427 215.277 539.156C215.622 539.879 215.795 540.725 215.795 541.695V542.701H208.402C208.422 543.958 208.734 544.915 209.34 545.572C209.945 546.23 210.798 546.559 211.898 546.559C212.576 546.559 213.174 546.497 213.695 546.373C214.216 546.249 214.757 546.067 215.316 545.826V547.252C214.776 547.493 214.239 547.669 213.705 547.779C213.178 547.89 212.553 547.945 211.83 547.945C210.801 547.945 209.903 547.737 209.135 547.32C208.373 546.897 207.781 546.279 207.357 545.465C206.934 544.651 206.723 543.655 206.723 542.477C206.723 541.324 206.915 540.328 207.299 539.488C207.689 538.642 208.236 537.991 208.939 537.535C209.649 537.079 210.482 536.852 211.439 536.852ZM211.42 538.18C210.554 538.18 209.864 538.463 209.35 539.029C208.835 539.596 208.529 540.387 208.432 541.402H214.096C214.089 540.764 213.988 540.204 213.793 539.723C213.604 539.234 213.314 538.857 212.924 538.59C212.533 538.316 212.032 538.18 211.42 538.18ZM223.412 536.852C223.627 536.852 223.852 536.865 224.086 536.891C224.32 536.91 224.529 536.939 224.711 536.979L224.506 538.482C224.33 538.437 224.135 538.401 223.92 538.375C223.705 538.349 223.503 538.336 223.314 538.336C222.885 538.336 222.478 538.424 222.094 538.6C221.716 538.769 221.384 539.016 221.098 539.342C220.811 539.661 220.587 540.048 220.424 540.504C220.261 540.953 220.18 541.454 220.18 542.008V547.75H218.549V537.047H219.896L220.072 539.02H220.141C220.362 538.622 220.629 538.261 220.941 537.936C221.254 537.604 221.615 537.34 222.025 537.145C222.442 536.949 222.904 536.852 223.412 536.852ZM225.043 537.047H226.781L229.145 543.258C229.281 543.622 229.408 543.974 229.525 544.312C229.643 544.645 229.747 544.964 229.838 545.27C229.929 545.576 230.001 545.872 230.053 546.158H230.121C230.212 545.833 230.342 545.406 230.512 544.879C230.681 544.345 230.863 543.801 231.059 543.248L233.295 537.047H235.043L230.385 549.322C230.137 549.98 229.848 550.553 229.516 551.041C229.19 551.529 228.793 551.904 228.324 552.164C227.855 552.431 227.289 552.564 226.625 552.564C226.319 552.564 226.049 552.545 225.814 552.506C225.58 552.473 225.378 552.434 225.209 552.389V551.09C225.352 551.122 225.525 551.152 225.727 551.178C225.935 551.204 226.15 551.217 226.371 551.217C226.775 551.217 227.123 551.139 227.416 550.982C227.715 550.833 227.973 550.611 228.188 550.318C228.402 550.025 228.588 549.677 228.744 549.273L229.33 547.77L225.043 537.047Z" fill="#242424"/>
</g>
<g filter="url(#filter2_d_27_917)">
<rect x="331.502" y="113.75" width="243.5" height="447" rx="8.00146" fill="white"/>
<rect x="331.252" y="113.5" width="244" height="447.5" rx="8.2515" stroke="#F3F3F3" stroke-width="0.500091"/>
<rect x="339.504" y="121.75" width="227.497" height="389" rx="6.00109" fill="#F8F8F8"/>
<g clip-path="url(#clip0_27_917)">
<path d="M481.826 284.54C479.168 274.941 467.355 275.088 467.355 275.088C472.229 270.067 478.431 273.021 478.431 273.021C474.148 263.865 461.227 267.409 461.227 267.409C464.549 262.241 468.536 260.912 468.536 260.912C457.607 260.321 454 266.855 454 266.855C454 266.855 450.391 260.321 439.464 260.912C439.464 260.912 443.451 262.241 446.774 267.409C446.774 267.409 433.852 263.865 429.569 273.021C429.569 273.021 435.772 270.067 440.644 275.088C440.644 275.088 428.831 274.941 426.173 284.54C426.173 284.54 430.751 280.848 435.919 283.357C435.919 283.357 430.012 288.527 429.864 296.205C429.864 296.205 434.885 291.48 441.383 289.265C441.383 289.265 438.577 297.83 440.129 305.508C440.129 305.508 445.518 298.42 450.982 295.762V336.077H457.018V295.762C462.481 298.419 467.871 305.508 467.871 305.508C469.422 297.83 466.616 289.265 466.616 289.265C473.114 291.48 478.135 296.205 478.135 296.205C477.988 288.527 472.08 283.357 472.08 283.357C477.249 280.847 481.827 284.54 481.827 284.54H481.826Z" fill="#242424"/>
<path d="M415.303 330.414C424.153 333.772 432.596 338.265 440.319 343.739C443.757 346.175 447.042 348.827 450.132 351.69C446.914 355.159 443.835 358.753 440.881 362.45C439.544 361.005 437.996 359.631 436.41 359.527C435.024 359.435 434.44 360.581 434.608 361.836C434.797 363.241 436.315 365.253 436.539 365.652C437.104 366.66 432.721 366.118 432.368 366.07C429.926 365.736 427.406 363.761 425.018 365.271C423.205 366.418 423.536 369.088 424.322 370.728C427.593 377.557 436.132 374.285 440.099 370.188C440.628 370.817 441.137 371.472 441.583 372.191C442.315 373.371 443.3 374.481 444.751 374.709C446.171 374.93 447.286 374.108 447.432 372.672C447.727 369.758 445.135 366.803 445.135 366.803C444.804 366.424 449.328 360.883 449.777 360.324C451.114 358.665 452.536 357.08 454.001 355.535C455.466 357.08 456.888 358.665 458.225 360.324C458.675 360.883 463.198 366.424 462.866 366.803C462.866 366.803 460.275 369.758 460.57 372.672C460.715 374.108 461.83 374.931 463.251 374.709C464.702 374.482 465.687 373.371 466.419 372.191C466.864 371.472 467.372 370.817 467.903 370.188C471.869 374.285 480.41 377.557 483.679 370.728C484.465 369.087 484.796 366.418 482.983 365.271C480.595 363.761 478.075 365.736 475.633 366.07C475.281 366.118 470.898 366.66 471.463 365.652C471.687 365.253 473.206 363.241 473.394 361.836C473.563 360.581 472.979 359.435 471.592 359.527C470.006 359.631 468.46 361.005 467.122 362.45C464.166 358.753 461.089 355.159 457.871 351.69C460.96 348.827 464.245 346.175 467.684 343.739C475.407 338.265 483.849 333.772 492.698 330.414C493.13 330.251 493.622 330.038 494.001 329.794C493.284 329.118 491.915 328.642 490.957 328.442C488.209 327.867 485.31 328.209 482.613 328.89C479.31 329.724 476.133 330.932 473.159 332.6C471.536 333.511 469.925 334.485 468.375 335.517C463.16 338.988 458.421 343.201 454.001 347.648C449.579 343.2 444.841 338.987 439.627 335.517C438.076 334.485 436.466 333.512 434.843 332.6C431.869 330.932 428.692 329.725 425.389 328.89C422.693 328.209 419.794 327.867 417.046 328.442C416.087 328.642 414.719 329.118 414.001 329.794C414.381 330.037 414.873 330.251 415.304 330.414H415.303Z" fill="#242424"/>
</g>
<path d="M390.66 547.75L388.903 543.219H383.18L381.432 547.75H379.752L385.338 533.414H386.832L392.379 547.75H390.66ZM388.405 541.744L386.735 537.242C386.696 537.125 386.63 536.933 386.539 536.666C386.455 536.399 386.367 536.122 386.276 535.836C386.184 535.549 386.11 535.318 386.051 535.143C385.986 535.41 385.914 535.676 385.836 535.943C385.765 536.204 385.693 536.448 385.621 536.676C385.55 536.897 385.488 537.086 385.436 537.242L383.737 541.744H388.405ZM395.748 547.75H394.117V532.555H395.748V547.75ZM400.807 547.75H399.176V532.555H400.807V547.75ZM418.629 547.75L416.871 543.219H411.149L409.401 547.75H407.721L413.307 533.414H414.801L420.348 547.75H418.629ZM416.373 541.744L414.703 537.242C414.664 537.125 414.599 536.933 414.508 536.666C414.423 536.399 414.336 536.122 414.244 535.836C414.153 535.549 414.078 535.318 414.02 535.143C413.955 535.41 413.883 535.676 413.805 535.943C413.733 536.204 413.662 536.448 413.59 536.676C413.518 536.897 413.457 537.086 413.405 537.242L411.705 541.744H416.373ZM426.373 547.945C425.41 547.945 424.56 547.747 423.824 547.35C423.089 546.952 422.516 546.347 422.106 545.533C421.696 544.719 421.49 543.694 421.49 542.457C421.49 541.161 421.705 540.104 422.135 539.283C422.571 538.456 423.17 537.844 423.932 537.447C424.694 537.05 425.559 536.852 426.53 536.852C427.063 536.852 427.578 536.907 428.073 537.018C428.574 537.122 428.984 537.255 429.303 537.418L428.815 538.775C428.489 538.645 428.112 538.528 427.682 538.424C427.259 538.32 426.862 538.268 426.49 538.268C425.748 538.268 425.13 538.427 424.635 538.746C424.147 539.065 423.779 539.534 423.531 540.152C423.291 540.771 423.17 541.533 423.17 542.438C423.17 543.303 423.287 544.042 423.522 544.654C423.763 545.266 424.117 545.735 424.586 546.061C425.061 546.38 425.654 546.539 426.364 546.539C426.93 546.539 427.441 546.48 427.897 546.363C428.352 546.24 428.766 546.096 429.137 545.934V547.379C428.779 547.561 428.378 547.701 427.936 547.799C427.5 547.896 426.979 547.945 426.373 547.945ZM436.539 536.852C436.754 536.852 436.979 536.865 437.213 536.891C437.448 536.91 437.656 536.939 437.838 536.979L437.633 538.482C437.457 538.437 437.262 538.401 437.047 538.375C436.832 538.349 436.63 538.336 436.442 538.336C436.012 538.336 435.605 538.424 435.221 538.6C434.843 538.769 434.511 539.016 434.225 539.342C433.938 539.661 433.714 540.048 433.551 540.504C433.388 540.953 433.307 541.454 433.307 542.008V547.75H431.676V537.047H433.024L433.199 539.02H433.268C433.489 538.622 433.756 538.261 434.069 537.936C434.381 537.604 434.742 537.34 435.153 537.145C435.569 536.949 436.031 536.852 436.539 536.852ZM449.088 542.379C449.088 543.258 448.974 544.042 448.746 544.732C448.518 545.423 448.19 546.005 447.76 546.48C447.33 546.956 446.809 547.32 446.198 547.574C445.592 547.822 444.905 547.945 444.137 547.945C443.421 547.945 442.763 547.822 442.164 547.574C441.572 547.32 441.058 546.956 440.621 546.48C440.192 546.005 439.856 545.423 439.615 544.732C439.381 544.042 439.264 543.258 439.264 542.379C439.264 541.207 439.462 540.211 439.86 539.391C440.257 538.564 440.823 537.936 441.559 537.506C442.301 537.07 443.183 536.852 444.205 536.852C445.182 536.852 446.035 537.07 446.764 537.506C447.5 537.942 448.069 538.574 448.473 539.4C448.883 540.221 449.088 541.214 449.088 542.379ZM440.944 542.379C440.944 543.238 441.058 543.984 441.285 544.615C441.513 545.247 441.865 545.735 442.34 546.08C442.815 546.425 443.427 546.598 444.176 546.598C444.918 546.598 445.527 546.425 446.002 546.08C446.484 545.735 446.839 545.247 447.067 544.615C447.295 543.984 447.408 543.238 447.408 542.379C447.408 541.526 447.295 540.79 447.067 540.172C446.839 539.547 446.487 539.065 446.012 538.727C445.537 538.388 444.921 538.219 444.166 538.219C443.053 538.219 442.236 538.587 441.715 539.322C441.201 540.058 440.944 541.077 440.944 542.379ZM458.815 544.82C458.815 545.504 458.642 546.08 458.297 546.549C457.959 547.011 457.47 547.359 456.832 547.594C456.201 547.828 455.446 547.945 454.567 547.945C453.818 547.945 453.17 547.887 452.623 547.77C452.076 547.652 451.598 547.486 451.188 547.271V545.777C451.624 545.992 452.145 546.188 452.75 546.363C453.356 546.539 453.974 546.627 454.606 546.627C455.53 546.627 456.201 546.477 456.617 546.178C457.034 545.878 457.242 545.471 457.242 544.957C457.242 544.664 457.158 544.407 456.989 544.186C456.826 543.958 456.549 543.74 456.158 543.531C455.768 543.316 455.227 543.082 454.537 542.828C453.854 542.568 453.261 542.311 452.76 542.057C452.265 541.796 451.881 541.48 451.608 541.109C451.341 540.738 451.207 540.257 451.207 539.664C451.207 538.759 451.572 538.066 452.301 537.584C453.037 537.096 454 536.852 455.192 536.852C455.836 536.852 456.438 536.917 456.998 537.047C457.565 537.171 458.092 537.34 458.58 537.555L458.033 538.854C457.591 538.665 457.119 538.505 456.617 538.375C456.116 538.245 455.605 538.18 455.084 538.18C454.336 538.18 453.759 538.303 453.356 538.551C452.959 538.798 452.76 539.137 452.76 539.566C452.76 539.898 452.851 540.172 453.033 540.387C453.222 540.602 453.522 540.803 453.932 540.992C454.342 541.181 454.882 541.402 455.553 541.656C456.224 541.904 456.803 542.161 457.291 542.428C457.78 542.688 458.154 543.007 458.414 543.385C458.681 543.756 458.815 544.234 458.815 544.82ZM468.346 544.82C468.346 545.504 468.173 546.08 467.828 546.549C467.49 547.011 467.002 547.359 466.364 547.594C465.732 547.828 464.977 547.945 464.098 547.945C463.349 547.945 462.701 547.887 462.155 547.77C461.608 547.652 461.129 547.486 460.719 547.271V545.777C461.155 545.992 461.676 546.188 462.281 546.363C462.887 546.539 463.505 546.627 464.137 546.627C465.061 546.627 465.732 546.477 466.149 546.178C466.565 545.878 466.774 545.471 466.774 544.957C466.774 544.664 466.689 544.407 466.52 544.186C466.357 543.958 466.08 543.74 465.69 543.531C465.299 543.316 464.759 543.082 464.069 542.828C463.385 542.568 462.793 542.311 462.291 542.057C461.796 541.796 461.412 541.48 461.139 541.109C460.872 540.738 460.739 540.257 460.739 539.664C460.739 538.759 461.103 538.066 461.832 537.584C462.568 537.096 463.531 536.852 464.723 536.852C465.367 536.852 465.97 536.917 466.53 537.047C467.096 537.171 467.623 537.34 468.112 537.555L467.565 538.854C467.122 538.665 466.65 538.505 466.149 538.375C465.647 538.245 465.136 538.18 464.615 538.18C463.867 538.18 463.291 538.303 462.887 538.551C462.49 538.798 462.291 539.137 462.291 539.566C462.291 539.898 462.382 540.172 462.565 540.387C462.753 540.602 463.053 540.803 463.463 540.992C463.873 541.181 464.414 541.402 465.084 541.656C465.755 541.904 466.334 542.161 466.823 542.428C467.311 542.688 467.685 543.007 467.946 543.385C468.212 543.756 468.346 544.234 468.346 544.82ZM484.449 543.951C484.449 544.798 484.238 545.52 483.815 546.119C483.398 546.712 482.812 547.164 482.057 547.477C481.302 547.789 480.413 547.945 479.391 547.945C478.851 547.945 478.339 547.919 477.858 547.867C477.376 547.815 476.933 547.74 476.53 547.643C476.126 547.545 475.771 547.424 475.465 547.281V545.689C475.953 545.891 476.549 546.08 477.252 546.256C477.955 546.425 478.691 546.51 479.459 546.51C480.175 546.51 480.781 546.415 481.276 546.227C481.77 546.031 482.145 545.755 482.399 545.396C482.659 545.032 482.789 544.596 482.789 544.088C482.789 543.6 482.682 543.193 482.467 542.867C482.252 542.535 481.894 542.236 481.393 541.969C480.898 541.695 480.221 541.406 479.362 541.1C478.756 540.885 478.222 540.65 477.76 540.396C477.298 540.136 476.91 539.843 476.598 539.518C476.285 539.192 476.048 538.814 475.885 538.385C475.729 537.955 475.651 537.464 475.651 536.91C475.651 536.148 475.843 535.497 476.227 534.957C476.617 534.41 477.155 533.993 477.838 533.707C478.528 533.414 479.319 533.268 480.211 533.268C480.973 533.268 481.676 533.339 482.321 533.482C482.972 533.626 483.567 533.818 484.108 534.059L483.59 535.484C483.076 535.27 482.529 535.09 481.949 534.947C481.377 534.804 480.784 534.732 480.172 534.732C479.56 534.732 479.043 534.824 478.619 535.006C478.203 535.182 477.884 535.432 477.662 535.758C477.441 536.083 477.33 536.471 477.33 536.92C477.33 537.421 477.434 537.838 477.643 538.17C477.858 538.502 478.196 538.798 478.658 539.059C479.127 539.312 479.746 539.579 480.514 539.859C481.354 540.165 482.067 540.491 482.653 540.836C483.239 541.174 483.684 541.591 483.99 542.086C484.296 542.574 484.449 543.196 484.449 543.951ZM491.129 536.871C492.405 536.871 493.352 537.158 493.971 537.73C494.589 538.303 494.899 539.218 494.899 540.475V547.75H493.717L493.405 546.168H493.326C493.027 546.559 492.714 546.887 492.389 547.154C492.063 547.415 491.686 547.613 491.256 547.75C490.833 547.88 490.312 547.945 489.694 547.945C489.043 547.945 488.463 547.831 487.955 547.604C487.454 547.376 487.057 547.031 486.764 546.568C486.477 546.106 486.334 545.52 486.334 544.811C486.334 543.743 486.757 542.923 487.604 542.35C488.45 541.777 489.739 541.464 491.471 541.412L493.317 541.334V540.68C493.317 539.755 493.118 539.107 492.721 538.736C492.324 538.365 491.764 538.18 491.041 538.18C490.481 538.18 489.948 538.261 489.44 538.424C488.932 538.587 488.45 538.779 487.994 539L487.496 537.77C487.978 537.522 488.531 537.311 489.156 537.135C489.781 536.959 490.439 536.871 491.129 536.871ZM493.297 542.477L491.666 542.545C490.332 542.597 489.391 542.815 488.844 543.199C488.297 543.583 488.024 544.127 488.024 544.83C488.024 545.442 488.209 545.895 488.58 546.188C488.951 546.48 489.443 546.627 490.055 546.627C491.005 546.627 491.783 546.363 492.389 545.836C492.994 545.309 493.297 544.518 493.297 543.463V542.477ZM507.076 537.047V547.75H505.748L505.514 546.246H505.426C505.205 546.617 504.918 546.93 504.567 547.184C504.215 547.438 503.818 547.626 503.375 547.75C502.939 547.88 502.474 547.945 501.979 547.945C501.132 547.945 500.423 547.809 499.85 547.535C499.277 547.262 498.844 546.839 498.551 546.266C498.265 545.693 498.121 544.957 498.121 544.059V537.047H499.762V543.941C499.762 544.833 499.964 545.501 500.367 545.943C500.771 546.38 501.386 546.598 502.213 546.598C503.007 546.598 503.639 546.448 504.108 546.148C504.583 545.849 504.925 545.41 505.133 544.83C505.341 544.244 505.446 543.528 505.446 542.682V537.047H507.076ZM514.313 547.945C512.959 547.945 511.884 547.483 511.09 546.559C510.302 545.634 509.908 544.26 509.908 542.438C509.908 540.595 510.312 539.205 511.119 538.268C511.927 537.324 513.001 536.852 514.342 536.852C514.908 536.852 515.403 536.926 515.826 537.076C516.25 537.226 516.614 537.428 516.92 537.682C517.226 537.929 517.483 538.212 517.692 538.531H517.809C517.783 538.329 517.757 538.053 517.731 537.701C517.705 537.35 517.692 537.063 517.692 536.842V532.555H519.313V547.75H518.004L517.76 546.227H517.692C517.49 546.546 517.233 546.835 516.92 547.096C516.614 547.356 516.246 547.564 515.817 547.721C515.393 547.87 514.892 547.945 514.313 547.945ZM514.567 546.598C515.712 546.598 516.523 546.272 516.998 545.621C517.474 544.97 517.711 544.003 517.711 542.721V542.428C517.711 541.067 517.483 540.022 517.028 539.293C516.578 538.564 515.758 538.199 514.567 538.199C513.571 538.199 512.825 538.583 512.33 539.352C511.836 540.113 511.588 541.155 511.588 542.477C511.588 543.792 511.832 544.807 512.321 545.523C512.815 546.24 513.564 546.598 514.567 546.598ZM524.371 537.047V547.75H522.75V537.047H524.371ZM523.58 533.043C523.847 533.043 524.075 533.131 524.264 533.307C524.459 533.476 524.557 533.743 524.557 534.107C524.557 534.465 524.459 534.732 524.264 534.908C524.075 535.084 523.847 535.172 523.58 535.172C523.3 535.172 523.066 535.084 522.877 534.908C522.695 534.732 522.604 534.465 522.604 534.107C522.604 533.743 522.695 533.476 522.877 533.307C523.066 533.131 523.3 533.043 523.58 533.043Z" fill="#242424"/>
</g>
<path d="M336.269 344.307H349.581L341.098 335.819C338.367 333.088 334.965 331.124 331.235 330.124C327.504 329.125 323.576 329.125 319.845 330.125C316.115 331.125 312.713 333.09 309.983 335.821C307.252 338.552 305.289 341.955 304.29 345.685M349.581 330.995V344.301" stroke="#242424" stroke-width="2" stroke-linecap="round" stroke-linejoin="round"/>
<defs>
<filter id="filter0_d_27_917" x="28" y="45.75" width="600" height="599" filterUnits="userSpaceOnUse" color-interpolation-filters="sRGB">
<feFlood flood-opacity="0" result="BackgroundImageFix"/>
<feColorMatrix in="SourceAlpha" type="matrix" values="0 0 0 0 0 0 0 0 0 0 0 0 0 0 0 0 0 0 127 0" result="hardAlpha"/>
<feOffset dx="2" dy="34"/>
<feGaussianBlur stdDeviation="10"/>
<feComposite in2="hardAlpha" operator="out"/>
<feColorMatrix type="matrix" values="0 0 0 0 0.908333 0 0 0 0 0.908333 0 0 0 0 0.908333 0 0 0 1 0"/>
<feBlend mode="multiply" in2="BackgroundImageFix" result="effect1_dropShadow_27_917"/>
<feBlend mode="normal" in="SourceGraphic" in2="effect1_dropShadow_27_917" result="shape"/>
</filter>
<filter id="filter1_d_27_917" x="30.4918" y="88.2454" width="334.516" height="538.016" filterUnits="userSpaceOnUse" color-interpolation-filters="sRGB">
<feFlood flood-opacity="0" result="BackgroundImageFix"/>
<feColorMatrix in="SourceAlpha" type="matrix" values="0 0 0 0 0 0 0 0 0 0 0 0 0 0 0 0 0 0 127 0" result="hardAlpha"/>
<feOffset dy="20.0036"/>
<feGaussianBlur stdDeviation="22.5041"/>
<feColorMatrix type="matrix" values="0 0 0 0 0 0 0 0 0 0 0 0 0 0 0 0 0 0 0.06 0"/>
<feBlend mode="normal" in2="BackgroundImageFix" result="effect1_dropShadow_27_917"/>
<feBlend mode="normal" in="SourceGraphic" in2="effect1_dropShadow_27_917" result="shape"/>
</filter>
<filter id="filter2_d_27_917" x="285.994" y="88.2454" width="334.516" height="538.016" filterUnits="userSpaceOnUse" color-interpolation-filters="sRGB">
<feFlood flood-opacity="0" result="BackgroundImageFix"/>
<feColorMatrix in="SourceAlpha" type="matrix" values="0 0 0 0 0 0 0 0 0 0 0 0 0 0 0 0 0 0 127 0" result="hardAlpha"/>
<feOffset dy="20.0036"/>
<feGaussianBlur stdDeviation="22.5041"/>
<feColorMatrix type="matrix" values="0 0 0 0 0 0 0 0 0 0 0 0 0 0 0 0 0 0 0.06 0"/>
<feBlend mode="normal" in2="BackgroundImageFix" result="effect1_dropShadow_27_917"/>
<feBlend mode="normal" in="SourceGraphic" in2="effect1_dropShadow_27_917" result="shape"/>
</filter>
<linearGradient id="paint0_linear_27_917" x1="-221.957" y1="5.9842e-05" x2="800.929" y2="205.514" gradientUnits="userSpaceOnUse">
<stop offset="0.0963806" stop-color="#A2FBFF"/>
<stop offset="0.550589" stop-color="#CCD0FF"/>
<stop offset="1" stop-color="#4BCEF8"/>
</linearGradient>
<clipPath id="clip0_27_917">
<rect width="80" height="113.868" fill="white" transform="translate(414.001 260.875)"/>
</clipPath>
</defs>
</svg>
