<svg width="48" height="31" viewBox="0 0 48 31" fill="none" xmlns="http://www.w3.org/2000/svg">
<g clip-path="url(#clip0_1509_2530)">
<g clip-path="url(#clip1_1509_2530)">
<path d="M5.96431 0.44342H41.436C44.3624 0.44342 46.7568 2.83776 46.7568 5.76417V24.3868C46.7568 27.3132 44.3624 29.7076 41.436 29.7076H5.96431C3.03789 29.7076 0.643555 27.3132 0.643555 24.3868V5.76417C0.643555 2.83776 3.03789 0.44342 5.96431 0.44342Z" fill="white" stroke="#CDD4D8" stroke-width="0.886792"/>
<path d="M35.7598 9.57739C35.2278 9.57739 34.7844 9.93211 34.5183 10.3755L30.2617 20.6623H33.2768L33.8976 18.9774H37.5334L37.8881 20.6623H40.5485L38.2429 9.57739H35.7598ZM37.09 16.6717H34.6957L36.2032 12.5038L37.09 16.6717Z" fill="#00579F"/>
<path d="M30.439 17.0263C30.439 14.0999 26.3597 13.9225 26.4484 12.5924C26.4484 12.2376 26.8031 11.7942 27.6899 11.7056C28.6654 11.6169 29.6408 11.7942 30.5276 12.2376L31.0597 9.93198C30.1729 9.57726 29.2861 9.3999 28.3993 9.3999C25.5616 9.3999 23.6106 10.9074 23.522 13.0358C23.522 14.632 24.9408 15.5188 26.005 16.0508C27.1578 16.5829 27.5125 16.9376 27.5125 17.4697C27.5125 18.1791 26.6257 18.5339 25.8276 18.5339C24.7635 18.5339 23.788 18.3565 22.9012 17.8244L22.3691 20.2188C23.4333 20.5735 24.4974 20.8395 25.5616 20.8395C28.3993 20.8395 30.439 19.332 30.439 17.0263Z" fill="#00579F"/>
<path d="M20.242 20.6621L22.6364 9.57715H19.7986L17.4043 20.6621H20.242Z" fill="#00579F"/>
<path d="M13.9451 20.6624L18.5564 9.57745H15.5413L12.5262 17.1152L11.3734 10.6416C11.2847 10.0208 10.7526 9.48877 10.0432 9.48877H5.16583L5.07715 9.84349C6.05262 10.0208 7.02809 10.3756 7.91488 10.819C8.2696 10.9963 8.53564 11.351 8.62432 11.7944L10.93 20.6624H13.9451Z" fill="#00579F"/>
</g>
</g>
<defs>
<clipPath id="clip0_1509_2530">
<rect width="47" height="31" fill="white" transform="translate(0.200195)"/>
</clipPath>
<clipPath id="clip1_1509_2530">
<rect width="47" height="30.1509" fill="white" transform="translate(0.200195)"/>
</clipPath>
</defs>
</svg>
